<svg xmlns="http://www.w3.org/2000/svg" viewBox="0 0 64 64">
  <path
    d="M32 7c-10.8 0-19.5 8.7-19.5 19.5 0 14.3 17.1 28.1 19.1 29.7a.68.68 0 0 0 .8 0C34.4 54.6 51.5 40.8 51.5 26.5 51.5 15.7 42.8 7 32 7Z"
    fill="#0f172a"
  />
  <path
    d="M23.8 34.5h16.4M22.3 38h19.4"
    fill="none"
    stroke="#fff"
    stroke-linecap="round"
    stroke-width="2.8"
  />
  <path
    d="M23.5 26h17l-8.5-5.7-8.5 5.7ZM25.8 34.5V26M32 34.5V26M38.2 34.5V26"
    fill="none"
    stroke="#fff"
    stroke-linecap="round"
    stroke-linejoin="round"
    stroke-width="2.8"
  />
  <circle cx="44" cy="15.5" r="5" fill="#f59e0b" />
  <path d="M44 13.2v4.6M41.7 15.5h4.6" fill="none" stroke="#fff" stroke-linecap="round" stroke-width="1.9" />
</svg>
